<svg width="36" height="33" viewBox="0 0 36 33" fill="none" xmlns="http://www.w3.org/2000/svg">
<g filter="url(#filter0_d_1473_4302)">
<path fill-rule="evenodd" clip-rule="evenodd" d="M31.4227 27.7852C30.8687 26.8481 28.8935 26.1555 27.6891 25.8907L17.5723 23.6703H17.5483L7.14242 25.8907C6.10666 26.1148 4.25192 26.6444 3.67382 27.3981C3.5052 27.6018 3.38476 27.8259 3.28841 28.05L3.16797 33.0815H8.71958L9.18986 32.2463V33.0815H16.5366H17.5483H26.292V32.2463L26.7623 33.0815H31.5432L31.4227 27.7852Z" fill="black"/>
<path d="M19.5229 26.1352H15.5243C14.7535 26.1352 14.1514 25.6055 14.1514 24.9741V19.4944C14.1514 18.3944 15.2112 17.5185 16.4879 17.5185H18.5594C19.8601 17.5185 20.8959 18.4148 20.8959 19.4944V24.9741C20.8959 25.6055 20.2696 26.1352 19.5229 26.1352Z" fill="#FFBE98"/>
<path d="M10.4327 16.4547C10.4327 16.4547 8.84296 16.4954 8.1685 14.438C7.49405 12.3603 8.84296 12.401 9.61376 12.951L10.4327 16.4547Z" fill="#F3AF91"/>
<path d="M24.2109 16.4547C24.2109 16.4547 25.8007 16.4954 26.4752 14.438C27.1496 12.3603 25.8007 12.401 25.0299 12.951L24.2109 16.4547Z" fill="#F3AF91"/>
<path d="M25.1843 12.2841C25.1843 16.9082 22.7755 21.5323 17.669 21.6137C12.3215 21.6952 9.67188 16.8878 9.67188 12.2841C9.67188 7.66004 9.96093 4.01374 17.4281 4.07485C25.3047 4.15634 25.1843 7.66004 25.1843 12.2841Z" fill="#FFBE98"/>
<path d="M24.7265 14.0556C24.6519 13.8992 22.8826 19.3241 21.3121 19.5886C19.7416 19.8531 21.4325 18.3868 21.0471 17.8368C20.6617 17.2868 18.9515 16.472 18.3493 16.6757C17.9398 16.8182 17.8101 17.0219 17.4099 17.0219C17.0097 17.0219 16.8559 16.8182 16.4705 16.6757C15.8683 16.4516 14.1581 17.2664 13.7727 17.8368C13.3873 18.3868 15.0975 19.8127 13.5077 19.5886C11.9179 19.3645 10.2739 14.3611 10.2739 14.3611C9.42511 13.8221 9.9353 13.6728 10.7617 18.6719C11.4843 23.4386 16.8318 23.3979 17.434 23.3775C18.0121 23.3979 23.3836 23.4386 24.1062 18.6719C24.8289 13.6405 25.69 13.5463 24.7265 14.0556ZM17.434 21.287C17.434 21.287 15.3726 20.8077 15.0915 19.5886C14.9446 18.9516 14.3688 17.8241 14.6398 17.959C14.9108 18.0939 17.3858 17.7349 17.3858 17.7349C17.3858 17.7145 17.4099 17.6738 17.4099 17.6738C17.4099 17.6738 17.4099 17.7145 17.434 17.7349C17.434 17.7349 19.8487 18.0812 20.18 17.959C20.5112 17.8368 20.0569 18.9518 19.909 19.5886C19.6291 20.7942 17.434 21.287 17.434 21.287Z" fill="black"/>
<path d="M17.3358 1.22222C26.4409 -1.22224 25.7089 5.37835 25.9591 9.7574C26.0607 11.5339 25.3284 14.2185 24.8752 14.2185C24.2445 14.2185 25.2847 11.9167 24.9475 9.4111C24.2489 4.09444 20.5153 7.27222 17.3839 7.23147C14.1562 7.19073 10.2299 4.15555 9.77227 9.32962C9.45914 12.8741 10.7991 14.7157 9.94089 14.4018C9.55107 14.2593 9.00147 12.0185 8.73651 10.5926C8.71242 10.3889 8.71242 10.1648 8.71242 9.96111V9.9611C8.71242 5.13333 8.23067 3.66667 17.3358 1.22222Z" fill="black"/>
</g>
<defs>
<filter id="filter0_d_1473_4302" x="-24" y="0" width="837.963" height="1808.64" filterUnits="userSpaceOnUse" color-interpolation-filters="sRGB">
<feFlood flood-opacity="0" result="BackgroundImageFix"/>
<feColorMatrix in="SourceAlpha" type="matrix" values="0 0 0 0 0 0 0 0 0 0 0 0 0 0 0 0 0 0 127 0" result="hardAlpha"/>
<feOffset dy="25"/>
<feGaussianBlur stdDeviation="12.5"/>
<feComposite in2="hardAlpha" operator="out"/>
<feColorMatrix type="matrix" values="0 0 0 0 0 0 0 0 0 0 0 0 0 0 0 0 0 0 0.25 0"/>
<feBlend mode="normal" in2="BackgroundImageFix" result="effect1_dropShadow_1473_4302"/>
<feBlend mode="normal" in="SourceGraphic" in2="effect1_dropShadow_1473_4302" result="shape"/>
</filter>
</defs>
</svg>
